<?xml version="1.0" encoding="UTF-8" standalone="no"?>
<!DOCTYPE svg PUBLIC "-//W3C//DTD SVG 1.1//EN"
 "http://www.w3.org/Graphics/SVG/1.1/DTD/svg11.dtd">
<!-- Generated by graphviz version 2.47.0 (20210316.0004)
 -->
<!-- Title: dependencies Pages: 1 -->
<svg width="504pt" height="211pt"
 viewBox="0.00 0.00 504.00 211.00" xmlns="http://www.w3.org/2000/svg" xmlns:xlink="http://www.w3.org/1999/xlink">
<g id="graph0" class="graph" transform="scale(1 1) rotate(0) translate(4 207)">
<title>dependencies</title>
<polygon fill="white" stroke="transparent" points="-4,4 -4,-207 500,-207 500,4 -4,4"/>
<text text-anchor="start" x="227.01" y="-42.4" font-family="Times-12" font-weight="bold" font-size="14.00">Legend</text>
<polygon fill="#ffffb3" stroke="transparent" points="14,-10 14,-30 34,-30 34,-10 14,-10"/>
<text text-anchor="start" x="37.63" y="-15.4" font-family="Times-12" font-size="14.00"> &#160;Declarations</text>
<polygon fill="#8dd3c7" stroke="transparent" points="127,-10 127,-30 147,-30 147,-10 127,-10"/>
<text text-anchor="start" x="150.73" y="-15.4" font-family="Times-12" font-size="14.00"> &#160;Module</text>
<polygon fill="#80b1d3" stroke="transparent" points="213,-10 213,-30 233,-30 233,-10 213,-10"/>
<text text-anchor="start" x="236.78" y="-15.4" font-family="Times-12" font-size="14.00"> &#160;Bootstrap</text>
<polygon fill="#fdb462" stroke="transparent" points="310,-10 310,-30 330,-30 330,-10 310,-10"/>
<text text-anchor="start" x="333.67" y="-15.4" font-family="Times-12" font-size="14.00"> &#160;Providers</text>
<polygon fill="#fb8072" stroke="transparent" points="406,-10 406,-30 426,-30 426,-10 406,-10"/>
<text text-anchor="start" x="429.73" y="-15.4" font-family="Times-12" font-size="14.00"> &#160;Exports</text>
<g id="clust1" class="cluster">
<title>cluster_InfrastructureModule</title>
<polygon fill="none" stroke="black" stroke-dasharray="1,5" points="30,-70 30,-195 466,-195 466,-70 30,-70"/>
</g>
<g id="clust6" class="cluster">
<title>cluster_InfrastructureModule_providers</title>
<polygon fill="none" stroke="black" points="174,-78 174,-130 458,-130 458,-78 174,-78"/>
</g>
<g id="clust3" class="cluster">
<title>cluster_InfrastructureModule_imports</title>
<polygon fill="none" stroke="black" points="38,-78 38,-130 166,-130 166,-78 38,-78"/>
</g>
<!-- CommonModule -->
<g id="node1" class="node">
<title>CommonModule</title>
<polygon fill="#8dd3c7" stroke="black" points="157.67,-122 154.67,-126 133.67,-126 130.67,-122 46.33,-122 46.33,-86 157.67,-86 157.67,-122"/>
<text text-anchor="middle" x="102" y="-99.8" font-family="Times,serif" font-size="14.00">CommonModule</text>
</g>
<!-- InfrastructureModule -->
<g id="node2" class="node">
<title>InfrastructureModule</title>
<polygon fill="#8dd3c7" stroke="black" points="278.72,-187 275.72,-191 254.72,-191 251.72,-187 143.28,-187 143.28,-151 278.72,-151 278.72,-187"/>
<text text-anchor="middle" x="211" y="-164.8" font-family="Times,serif" font-size="14.00">InfrastructureModule</text>
</g>
<!-- CommonModule&#45;&gt;InfrastructureModule -->
<g id="edge1" class="edge">
<title>CommonModule&#45;&gt;InfrastructureModule</title>
<path fill="none" stroke="black" d="M150.49,-122.11C150.49,-122.11 150.49,-140.99 150.49,-140.99"/>
<polygon fill="black" stroke="black" points="146.99,-140.99 150.49,-150.99 153.99,-140.99 146.99,-140.99"/>
</g>
<!-- GoogleCalendarAdapterService -->
<g id="node3" class="node">
<title>GoogleCalendarAdapterService</title>
<ellipse fill="#fdb462" stroke="black" cx="316" cy="-104" rx="134.25" ry="18"/>
<text text-anchor="middle" x="316" y="-99.8" font-family="Times,serif" font-size="14.00">GoogleCalendarAdapterService</text>
</g>
<!-- GoogleCalendarAdapterService&#45;&gt;InfrastructureModule -->
<g id="edge2" class="edge">
<title>GoogleCalendarAdapterService&#45;&gt;InfrastructureModule</title>
<path fill="none" stroke="black" d="M230.24,-118.1C230.24,-118.1 230.24,-140.72 230.24,-140.72"/>
<polygon fill="black" stroke="black" points="226.74,-140.72 230.24,-150.72 233.74,-140.72 226.74,-140.72"/>
</g>
</g>
</svg>
