<?xml version="1.0" encoding="UTF-8" standalone="no"?>
<!DOCTYPE svg PUBLIC "-//W3C//DTD SVG 1.1//EN"
 "http://www.w3.org/Graphics/SVG/1.1/DTD/svg11.dtd">
<!-- Generated by graphviz version 2.47.0 (20210316.0004)
 -->
<!-- Title: dependencies Pages: 1 -->
<svg width="1431pt" height="371pt"
 viewBox="0.00 0.00 1431.00 371.00" xmlns="http://www.w3.org/2000/svg" xmlns:xlink="http://www.w3.org/1999/xlink">
<g id="graph0" class="graph" transform="scale(1 1) rotate(0) translate(4 367)">
<title>dependencies</title>
<polygon fill="white" stroke="transparent" points="-4,4 -4,-367 1427,-367 1427,4 -4,4"/>
<text text-anchor="start" x="690.51" y="-42.4" font-family="Times-12" font-weight="bold" font-size="14.00">Legend</text>
<polygon fill="#ffffb3" stroke="transparent" points="477.5,-10 477.5,-30 497.5,-30 497.5,-10 477.5,-10"/>
<text text-anchor="start" x="501.13" y="-15.4" font-family="Times-12" font-size="14.00"> &#160;Declarations</text>
<polygon fill="#8dd3c7" stroke="transparent" points="590.5,-10 590.5,-30 610.5,-30 610.5,-10 590.5,-10"/>
<text text-anchor="start" x="614.23" y="-15.4" font-family="Times-12" font-size="14.00"> &#160;Module</text>
<polygon fill="#80b1d3" stroke="transparent" points="676.5,-10 676.5,-30 696.5,-30 696.5,-10 676.5,-10"/>
<text text-anchor="start" x="700.28" y="-15.4" font-family="Times-12" font-size="14.00"> &#160;Bootstrap</text>
<polygon fill="#fdb462" stroke="transparent" points="773.5,-10 773.5,-30 793.5,-30 793.5,-10 773.5,-10"/>
<text text-anchor="start" x="797.17" y="-15.4" font-family="Times-12" font-size="14.00"> &#160;Providers</text>
<polygon fill="#fb8072" stroke="transparent" points="869.5,-10 869.5,-30 889.5,-30 889.5,-10 869.5,-10"/>
<text text-anchor="start" x="893.23" y="-15.4" font-family="Times-12" font-size="14.00"> &#160;Exports</text>
<g id="clust1" class="cluster">
<title>cluster_ApplicationModule</title>
<polygon fill="none" stroke="black" stroke-dasharray="1,5" points="444,-146 444,-355 1415,-355 1415,-146 444,-146"/>
</g>
<g id="clust3" class="cluster">
<title>cluster_ApplicationModule_imports</title>
<polygon fill="none" stroke="black" points="452,-154 452,-206 604,-206 604,-154 452,-154"/>
</g>
<g id="clust4" class="cluster">
<title>cluster_ApplicationModule_exports</title>
<polygon fill="none" stroke="black" points="452,-295 452,-347 1053,-347 1053,-295 452,-295"/>
</g>
<g id="clust6" class="cluster">
<title>cluster_ApplicationModule_providers</title>
<polygon fill="none" stroke="black" points="612,-154 612,-206 1407,-206 1407,-154 612,-154"/>
</g>
<g id="clust7" class="cluster">
<title>cluster_AppModule</title>
<polygon fill="none" stroke="black" stroke-dasharray="1,5" points="8,-222 8,-347 436,-347 436,-222 8,-222"/>
</g>
<g id="clust9" class="cluster">
<title>cluster_AppModule_imports</title>
<polygon fill="none" stroke="black" points="154,-230 154,-282 428,-282 428,-230 154,-230"/>
</g>
<g id="clust12" class="cluster">
<title>cluster_AppModule_providers</title>
<polygon fill="none" stroke="black" points="16,-230 16,-282 146,-282 146,-230 16,-230"/>
</g>
<g id="clust13" class="cluster">
<title>cluster_CommonModule</title>
<polygon fill="none" stroke="black" stroke-dasharray="1,5" points="168,-146 168,-214 430,-214 430,-146 168,-146"/>
</g>
<g id="clust16" class="cluster">
<title>cluster_CommonModule_exports</title>
<polygon fill="none" stroke="black" points="318,-154 318,-206 422,-206 422,-154 318,-154"/>
</g>
<g id="clust18" class="cluster">
<title>cluster_CommonModule_providers</title>
<polygon fill="none" stroke="black" points="176,-154 176,-206 310,-206 310,-154 176,-154"/>
</g>
<g id="clust19" class="cluster">
<title>cluster_InfrastructureModule</title>
<polygon fill="none" stroke="black" stroke-dasharray="1,5" points="378,-70 378,-138 678,-138 678,-70 378,-70"/>
</g>
<g id="clust24" class="cluster">
<title>cluster_InfrastructureModule_providers</title>
<polygon fill="none" stroke="black" points="386,-78 386,-130 670,-130 670,-78 386,-78"/>
</g>
<!-- InfrastructureModule -->
<g id="node1" class="node">
<title>InfrastructureModule</title>
<polygon fill="#8dd3c7" stroke="black" points="595.72,-198 592.72,-202 571.72,-202 568.72,-198 460.28,-198 460.28,-162 595.72,-162 595.72,-198"/>
<text text-anchor="middle" x="528" y="-175.8" font-family="Times,serif" font-size="14.00">InfrastructureModule</text>
</g>
<!-- ApplicationModule -->
<g id="node2" class="node">
<title>ApplicationModule</title>
<polygon fill="#8dd3c7" stroke="black" points="804.65,-274 801.65,-278 780.65,-278 777.65,-274 679.35,-274 679.35,-238 804.65,-238 804.65,-274"/>
<text text-anchor="middle" x="742" y="-251.8" font-family="Times,serif" font-size="14.00">ApplicationModule</text>
</g>
<!-- InfrastructureModule&#45;&gt;ApplicationModule -->
<g id="edge1" class="edge">
<title>InfrastructureModule&#45;&gt;ApplicationModule</title>
<path fill="none" stroke="black" d="M550.62,-198.03C550.62,-217.58 550.62,-246 550.62,-246 550.62,-246 669.34,-246 669.34,-246"/>
<polygon fill="black" stroke="black" points="669.34,-249.5 679.34,-246 669.34,-242.5 669.34,-249.5"/>
</g>
<!-- AppModule -->
<g id="node11" class="node">
<title>AppModule</title>
<polygon fill="#8dd3c7" stroke="black" points="405.66,-339 402.66,-343 381.66,-343 378.66,-339 322.34,-339 322.34,-303 405.66,-303 405.66,-339"/>
<text text-anchor="middle" x="364" y="-316.8" font-family="Times,serif" font-size="14.00">AppModule</text>
</g>
<!-- InfrastructureModule&#45;&gt;AppModule -->
<g id="edge10" class="edge">
<title>InfrastructureModule&#45;&gt;AppModule</title>
<path fill="none" stroke="black" d="M460.08,-180C444.87,-180 433.15,-180 433.15,-180 433.15,-180 433.15,-315 433.15,-315 433.15,-315 415.82,-315 415.82,-315"/>
<polygon fill="black" stroke="black" points="415.82,-311.5 405.82,-315 415.82,-318.5 415.82,-311.5"/>
</g>
<!-- DeleteEventUseCaseService  -->
<g id="node3" class="node">
<title>DeleteEventUseCaseService </title>
<polygon fill="#fb8072" stroke="black" points="1044.64,-339 865.36,-339 865.36,-303 1044.64,-303 1044.64,-339"/>
<text text-anchor="middle" x="955" y="-316.8" font-family="Times,serif" font-size="14.00">DeleteEventUseCaseService </text>
</g>
<!-- ApplicationModule&#45;&gt;DeleteEventUseCaseService  -->
<g id="edge2" class="edge">
<title>ApplicationModule&#45;&gt;DeleteEventUseCaseService </title>
<path fill="none" stroke="black" stroke-dasharray="5,2" d="M804.73,-265C838.62,-265 873.62,-265 873.62,-265 873.62,-265 873.62,-292.97 873.62,-292.97"/>
<polygon fill="black" stroke="black" points="870.12,-292.97 873.62,-302.97 877.12,-292.97 870.12,-292.97"/>
</g>
<!-- SyncCalendarUseCaseService  -->
<g id="node4" class="node">
<title>SyncCalendarUseCaseService </title>
<polygon fill="#fb8072" stroke="black" points="847.48,-339 658.52,-339 658.52,-303 847.48,-303 847.48,-339"/>
<text text-anchor="middle" x="753" y="-316.8" font-family="Times,serif" font-size="14.00">SyncCalendarUseCaseService </text>
</g>
<!-- ApplicationModule&#45;&gt;SyncCalendarUseCaseService  -->
<g id="edge3" class="edge">
<title>ApplicationModule&#45;&gt;SyncCalendarUseCaseService </title>
<path fill="none" stroke="black" stroke-dasharray="5,2" d="M742,-274.11C742,-274.11 742,-292.99 742,-292.99"/>
<polygon fill="black" stroke="black" points="738.5,-292.99 742,-302.99 745.5,-292.99 738.5,-292.99"/>
</g>
<!-- UpsertEventUseCaseService  -->
<g id="node5" class="node">
<title>UpsertEventUseCaseService </title>
<polygon fill="#fb8072" stroke="black" points="640.43,-339 459.57,-339 459.57,-303 640.43,-303 640.43,-339"/>
<text text-anchor="middle" x="550" y="-316.8" font-family="Times,serif" font-size="14.00">UpsertEventUseCaseService </text>
</g>
<!-- ApplicationModule&#45;&gt;UpsertEventUseCaseService  -->
<g id="edge4" class="edge">
<title>ApplicationModule&#45;&gt;UpsertEventUseCaseService </title>
<path fill="none" stroke="black" stroke-dasharray="5,2" d="M679.17,-267C653.66,-267 630.09,-267 630.09,-267 630.09,-267 630.09,-292.72 630.09,-292.72"/>
<polygon fill="black" stroke="black" points="626.59,-292.72 630.09,-302.72 633.59,-292.72 626.59,-292.72"/>
</g>
<!-- PresentationModule -->
<g id="node10" class="node">
<title>PresentationModule</title>
<polygon fill="#8dd3c7" stroke="black" points="290.25,-274 287.25,-278 266.25,-278 263.25,-274 161.75,-274 161.75,-238 290.25,-238 290.25,-274"/>
<text text-anchor="middle" x="226" y="-251.8" font-family="Times,serif" font-size="14.00">PresentationModule</text>
</g>
<!-- ApplicationModule&#45;&gt;PresentationModule -->
<g id="edge17" class="edge">
<title>ApplicationModule&#45;&gt;PresentationModule</title>
<path fill="none" stroke="black" d="M721.06,-237.89C721.06,-228.1 721.06,-218 721.06,-218 721.06,-218 237.3,-218 237.3,-218 237.3,-218 237.3,-227.89 237.3,-227.89"/>
<polygon fill="black" stroke="black" points="233.8,-227.89 237.3,-237.89 240.8,-227.89 233.8,-227.89"/>
</g>
<!-- ApplicationModule&#45;&gt;AppModule -->
<g id="edge8" class="edge">
<title>ApplicationModule&#45;&gt;AppModule</title>
<path fill="none" stroke="black" d="M679.33,-260C592.57,-260 446.47,-260 446.47,-260 446.47,-260 446.47,-327 446.47,-327 446.47,-327 415.72,-327 415.72,-327"/>
<polygon fill="black" stroke="black" points="415.72,-323.5 405.72,-327 415.72,-330.5 415.72,-323.5"/>
</g>
<!-- DeleteEventUseCaseService -->
<g id="node6" class="node">
<title>DeleteEventUseCaseService</title>
<ellipse fill="#fdb462" stroke="black" cx="1277" cy="-180" rx="121.5" ry="18"/>
<text text-anchor="middle" x="1277" y="-175.8" font-family="Times,serif" font-size="14.00">DeleteEventUseCaseService</text>
</g>
<!-- DeleteEventUseCaseService&#45;&gt;ApplicationModule -->
<g id="edge5" class="edge">
<title>DeleteEventUseCaseService&#45;&gt;ApplicationModule</title>
<path fill="none" stroke="black" d="M1277,-198.01C1277,-220.49 1277,-256 1277,-256 1277,-256 814.68,-256 814.68,-256"/>
<polygon fill="black" stroke="black" points="814.68,-252.5 804.68,-256 814.68,-259.5 814.68,-252.5"/>
</g>
<!-- SyncCalendarUseCaseService -->
<g id="node7" class="node">
<title>SyncCalendarUseCaseService</title>
<ellipse fill="#fdb462" stroke="black" cx="1010" cy="-180" rx="127.89" ry="18"/>
<text text-anchor="middle" x="1010" y="-175.8" font-family="Times,serif" font-size="14.00">SyncCalendarUseCaseService</text>
</g>
<!-- SyncCalendarUseCaseService&#45;&gt;ApplicationModule -->
<g id="edge6" class="edge">
<title>SyncCalendarUseCaseService&#45;&gt;ApplicationModule</title>
<path fill="none" stroke="black" d="M963.44,-196.91C963.44,-216.76 963.44,-247 963.44,-247 963.44,-247 814.86,-247 814.86,-247"/>
<polygon fill="black" stroke="black" points="814.86,-243.5 804.86,-247 814.86,-250.5 814.86,-243.5"/>
</g>
<!-- UpsertEventUseCaseService -->
<g id="node8" class="node">
<title>UpsertEventUseCaseService</title>
<ellipse fill="#fdb462" stroke="black" cx="742" cy="-180" rx="122.08" ry="18"/>
<text text-anchor="middle" x="742" y="-175.8" font-family="Times,serif" font-size="14.00">UpsertEventUseCaseService</text>
</g>
<!-- UpsertEventUseCaseService&#45;&gt;ApplicationModule -->
<g id="edge7" class="edge">
<title>UpsertEventUseCaseService&#45;&gt;ApplicationModule</title>
<path fill="none" stroke="black" d="M762.94,-198.01C762.94,-198.01 762.94,-227.85 762.94,-227.85"/>
<polygon fill="black" stroke="black" points="759.44,-227.85 762.94,-237.85 766.44,-227.85 759.44,-227.85"/>
</g>
<!-- CommonModule -->
<g id="node9" class="node">
<title>CommonModule</title>
<polygon fill="#8dd3c7" stroke="black" points="419.67,-274 416.67,-278 395.67,-278 392.67,-274 308.33,-274 308.33,-238 419.67,-238 419.67,-274"/>
<text text-anchor="middle" x="364" y="-251.8" font-family="Times,serif" font-size="14.00">CommonModule</text>
</g>
<!-- CommonModule&#45;&gt;InfrastructureModule -->
<g id="edge15" class="edge">
<title>CommonModule&#45;&gt;InfrastructureModule</title>
<path fill="none" stroke="black" d="M419.88,-253C459.39,-253 505.38,-253 505.38,-253 505.38,-253 505.38,-208.04 505.38,-208.04"/>
<polygon fill="black" stroke="black" points="508.88,-208.04 505.38,-198.04 501.88,-208.04 508.88,-208.04"/>
</g>
<!-- CommonModule&#45;&gt;AppModule -->
<g id="edge9" class="edge">
<title>CommonModule&#45;&gt;AppModule</title>
<path fill="none" stroke="black" d="M364,-274.11C364,-274.11 364,-292.99 364,-292.99"/>
<polygon fill="black" stroke="black" points="360.5,-292.99 364,-302.99 367.5,-292.99 360.5,-292.99"/>
</g>
<!-- UtilsService  -->
<g id="node13" class="node">
<title>UtilsService </title>
<polygon fill="#fb8072" stroke="black" points="414.2,-198 325.8,-198 325.8,-162 414.2,-162 414.2,-198"/>
<text text-anchor="middle" x="370" y="-175.8" font-family="Times,serif" font-size="14.00">UtilsService </text>
</g>
<!-- CommonModule&#45;&gt;UtilsService  -->
<g id="edge13" class="edge">
<title>CommonModule&#45;&gt;UtilsService </title>
<path fill="none" stroke="black" stroke-dasharray="5,2" d="M370,-237.99C370,-237.99 370,-208.15 370,-208.15"/>
<polygon fill="black" stroke="black" points="373.5,-208.15 370,-198.15 366.5,-208.15 373.5,-208.15"/>
</g>
<!-- PresentationModule&#45;&gt;AppModule -->
<g id="edge11" class="edge">
<title>PresentationModule&#45;&gt;AppModule</title>
<path fill="none" stroke="black" d="M226,-274.02C226,-291.37 226,-315 226,-315 226,-315 312.22,-315 312.22,-315"/>
<polygon fill="black" stroke="black" points="312.22,-318.5 322.22,-315 312.22,-311.5 312.22,-318.5"/>
</g>
<!-- AppService -->
<g id="node12" class="node">
<title>AppService</title>
<ellipse fill="#fdb462" stroke="black" cx="81" cy="-256" rx="56.74" ry="18"/>
<text text-anchor="middle" x="81" y="-251.8" font-family="Times,serif" font-size="14.00">AppService</text>
</g>
<!-- AppService&#45;&gt;AppModule -->
<g id="edge12" class="edge">
<title>AppService&#45;&gt;AppModule</title>
<path fill="none" stroke="black" d="M81,-274.28C81,-295.32 81,-327 81,-327 81,-327 312.24,-327 312.24,-327"/>
<polygon fill="black" stroke="black" points="312.24,-330.5 322.24,-327 312.24,-323.5 312.24,-330.5"/>
</g>
<!-- UtilsService -->
<g id="node14" class="node">
<title>UtilsService</title>
<ellipse fill="#fdb462" stroke="black" cx="243" cy="-180" rx="58.54" ry="18"/>
<text text-anchor="middle" x="243" y="-175.8" font-family="Times,serif" font-size="14.00">UtilsService</text>
</g>
<!-- UtilsService&#45;&gt;CommonModule -->
<g id="edge14" class="edge">
<title>UtilsService&#45;&gt;CommonModule</title>
<path fill="none" stroke="black" d="M296.07,-187.85C296.07,-207.26 296.07,-256 296.07,-256 296.07,-256 298.22,-256 298.22,-256"/>
<polygon fill="black" stroke="black" points="298.22,-259.5 308.22,-256 298.22,-252.5 298.22,-259.5"/>
</g>
<!-- GoogleCalendarAdapterService -->
<g id="node15" class="node">
<title>GoogleCalendarAdapterService</title>
<ellipse fill="#fdb462" stroke="black" cx="528" cy="-104" rx="134.25" ry="18"/>
<text text-anchor="middle" x="528" y="-99.8" font-family="Times,serif" font-size="14.00">GoogleCalendarAdapterService</text>
</g>
<!-- GoogleCalendarAdapterService&#45;&gt;InfrastructureModule -->
<g id="edge16" class="edge">
<title>GoogleCalendarAdapterService&#45;&gt;InfrastructureModule</title>
<path fill="none" stroke="black" d="M528,-122.01C528,-122.01 528,-151.85 528,-151.85"/>
<polygon fill="black" stroke="black" points="524.5,-151.85 528,-161.85 531.5,-151.85 524.5,-151.85"/>
</g>
</g>
</svg>
